<svg width="0" height="0" class="hidden">
  <symbol xmlns="http://www.w3.org/2000/svg" viewBox="0 0 18 20" id="share">
    <path d="M14.4999 13.5625C13.832 13.5625 13.2156 13.7969 12.7328 14.1883L7.8765 10.675C7.95782 10.2287 7.95782 9.77133 7.8765 9.325L12.7328 5.81172C13.2156 6.20312 13.832 6.4375 14.4999 6.4375C16.0515 6.4375 17.3124 5.17656 17.3124 3.625C17.3124 2.07344 16.0515 0.8125 14.4999 0.8125C12.9484 0.8125 11.6874 2.07344 11.6874 3.625C11.6874 3.89687 11.7249 4.15703 11.7976 4.40547L7.18509 7.74531C6.50072 6.83828 5.41322 6.25 4.18744 6.25C2.11556 6.25 0.437439 7.92812 0.437439 10C0.437439 12.0719 2.11556 13.75 4.18744 13.75C5.41322 13.75 6.50072 13.1617 7.18509 12.2547L11.7976 15.5945C11.7249 15.843 11.6874 16.1055 11.6874 16.375C11.6874 17.9266 12.9484 19.1875 14.4999 19.1875C16.0515 19.1875 17.3124 17.9266 17.3124 16.375C17.3124 14.8234 16.0515 13.5625 14.4999 13.5625ZM14.4999 2.40625C15.1726 2.40625 15.7187 2.95234 15.7187 3.625C15.7187 4.29766 15.1726 4.84375 14.4999 4.84375C13.8273 4.84375 13.2812 4.29766 13.2812 3.625C13.2812 2.95234 13.8273 2.40625 14.4999 2.40625ZM4.18744 12.0625C3.05072 12.0625 2.12494 11.1367 2.12494 10C2.12494 8.86328 3.05072 7.9375 4.18744 7.9375C5.32416 7.9375 6.24994 8.86328 6.24994 10C6.24994 11.1367 5.32416 12.0625 4.18744 12.0625ZM14.4999 17.5938C13.8273 17.5938 13.2812 17.0477 13.2812 16.375C13.2812 15.7023 13.8273 15.1562 14.4999 15.1562C15.1726 15.1562 15.7187 15.7023 15.7187 16.375C15.7187 17.0477 15.1726 17.5938 14.4999 17.5938Z"></path>
  </symbol>
  <symbol xmlns="http://www.w3.org/2000/svg" viewBox="0 0 22 22" id="comment">
    <path d="M9.75013 11C9.75013 11.2984 9.86866 11.5845 10.0796 11.7955C10.2906 12.0065 10.5768 12.125 10.8751 12.125C11.1735 12.125 11.4596 12.0065 11.6706 11.7955C11.8816 11.5845 12.0001 11.2984 12.0001 11C12.0001 10.7016 11.8816 10.4155 11.6706 10.2045C11.4596 9.99353 11.1735 9.875 10.8751 9.875C10.5768 9.875 10.2906 9.99353 10.0796 10.2045C9.86866 10.4155 9.75013 10.7016 9.75013 11ZM14.4376 11C14.4376 11.2984 14.5562 11.5845 14.7671 11.7955C14.9781 12.0065 15.2643 12.125 15.5626 12.125C15.861 12.125 16.1471 12.0065 16.3581 11.7955C16.5691 11.5845 16.6876 11.2984 16.6876 11C16.6876 10.7016 16.5691 10.4155 16.3581 10.2045C16.1471 9.99353 15.861 9.875 15.5626 9.875C15.2643 9.875 14.9781 9.99353 14.7671 10.2045C14.5562 10.4155 14.4376 10.7016 14.4376 11ZM5.06263 11C5.06263 11.2984 5.18116 11.5845 5.39214 11.7955C5.60312 12.0065 5.88926 12.125 6.18763 12.125C6.486 12.125 6.77215 12.0065 6.98313 11.7955C7.19411 11.5845 7.31263 11.2984 7.31263 11C7.31263 10.7016 7.19411 10.4155 6.98313 10.2045C6.77215 9.99353 6.486 9.875 6.18763 9.875C5.88926 9.875 5.60312 9.99353 5.39214 10.2045C5.18116 10.4155 5.06263 10.7016 5.06263 11ZM20.5595 6.93125C20.0298 5.67266 19.2704 4.54297 18.3025 3.57266C17.3413 2.60796 16.2002 1.84114 14.9439 1.31563C13.6548 0.774219 12.2861 0.5 10.8751 0.5H10.8283C9.40795 0.507031 8.03216 0.788281 6.73841 1.34141C5.49285 1.87232 4.36247 2.64049 3.41029 3.60312C2.4517 4.57109 1.69935 5.69609 1.17904 6.95C0.639977 8.24844 0.368102 9.62891 0.375133 11.0492C0.383086 12.6769 0.768161 14.2806 1.50013 15.7344V19.2969C1.50013 19.5828 1.61372 19.857 1.81591 20.0592C2.0181 20.2614 2.29232 20.375 2.57826 20.375H6.1431C7.59692 21.107 9.20059 21.492 10.8283 21.5H10.8775C12.2814 21.5 13.6431 21.2281 14.9251 20.6961C16.1751 20.1768 17.3119 19.419 18.272 18.4648C19.24 17.5063 20.0017 16.3859 20.5337 15.1367C21.0869 13.843 21.3681 12.4672 21.3751 11.0469C21.3822 9.61953 21.1056 8.23438 20.5595 6.93125ZM17.0181 17.1969C15.3751 18.8234 13.1954 19.7188 10.8751 19.7188H10.8353C9.42201 19.7117 8.0181 19.3602 6.77826 18.6992L6.58138 18.5938H3.28138V15.2938L3.17591 15.0969C2.51498 13.857 2.16341 12.4531 2.15638 11.0398C2.14701 8.70312 3.03998 6.50937 4.67826 4.85703C6.3142 3.20469 8.50091 2.29062 10.8376 2.28125H10.8775C12.0494 2.28125 13.1861 2.50859 14.2572 2.95859C15.3025 3.39687 16.24 4.02734 17.0462 4.83359C17.8501 5.6375 18.4829 6.57734 18.9212 7.62266C19.3759 8.70547 19.6033 9.85391 19.5986 11.0398C19.5845 13.3742 18.6681 15.5609 17.0181 17.1969Z"></path>
  </symbol>
  <symbol xmlns="http://www.w3.org/2000/svg" viewBox="0 0 19 20" id="like">
    <path d="M18.1383 10.5094C18.532 9.98909 18.75 9.35159 18.75 8.6883C18.75 7.63596 18.1617 6.63987 17.2148 6.0844C16.9711 5.94142 16.6935 5.86617 16.4109 5.86643H10.7906L10.9313 2.98596C10.9641 2.28987 10.718 1.62893 10.2398 1.12502C10.0052 0.876652 9.72212 0.679038 9.40808 0.544395C9.09405 0.409752 8.75574 0.34094 8.41406 0.342211C7.19531 0.342211 6.11719 1.16252 5.79375 2.33674L3.78047 9.62581H0.75C0.335156 9.62581 0 9.96096 0 10.3758V18.9071C0 19.3219 0.335156 19.6571 0.75 19.6571H14.843C15.0586 19.6571 15.2695 19.6149 15.4641 19.5305C16.5797 19.0547 17.2992 17.9649 17.2992 16.7555C17.2992 16.4602 17.257 16.1696 17.1727 15.8883C17.5664 15.368 17.7844 14.7305 17.7844 14.0672C17.7844 13.7719 17.7422 13.4813 17.6578 13.2C18.0516 12.6797 18.2695 12.0422 18.2695 11.3789C18.2648 11.0836 18.2227 10.7906 18.1383 10.5094ZM1.6875 17.9696V11.3133H3.58594V17.9696H1.6875ZM16.6031 9.69612L16.0898 10.1414L16.4156 10.7367C16.523 10.9328 16.5786 11.153 16.5773 11.3766C16.5773 11.7633 16.4086 12.1313 16.118 12.3844L15.6047 12.8297L15.9305 13.425C16.0378 13.6211 16.0935 13.8413 16.0922 14.0649C16.0922 14.4516 15.9234 14.8196 15.6328 15.0727L15.1195 15.518L15.4453 16.1133C15.5526 16.3094 15.6083 16.5296 15.607 16.7531C15.607 17.2781 15.2977 17.7516 14.8195 17.9672H5.08594V11.2383L7.41797 2.78909C7.4781 2.57252 7.60719 2.38147 7.78566 2.24486C7.96414 2.10825 8.18228 2.03354 8.40703 2.03205C8.58516 2.03205 8.76094 2.08362 8.90156 2.18909C9.13359 2.36252 9.25781 2.62502 9.24375 2.90393L9.01875 7.55393H16.3875C16.8047 7.8094 17.0625 8.24065 17.0625 8.6883C17.0625 9.07502 16.8938 9.44065 16.6031 9.69612Z"></path>
  </symbol>
  <symbol xmlns="http://www.w3.org/2000/svg" viewBox="0 0 20 20" id="save">
    <path d="M18.8117 4.87422L15.0007 1.06328C14.8249 0.8875 14.6093 0.758594 14.3749 0.688281V0.625H1.24994C0.835095 0.625 0.499939 0.960156 0.499939 1.375V18.625C0.499939 19.0398 0.835095 19.375 1.24994 19.375H18.4999C18.9148 19.375 19.2499 19.0398 19.2499 18.625V5.93359C19.2499 5.53516 19.0929 5.15547 18.8117 4.87422ZM6.87494 2.3125H12.8749V4.75H6.87494V2.3125ZM17.5624 17.6875H2.18744V2.3125H5.37494V5.5C5.37494 5.91484 5.7101 6.25 6.12494 6.25H13.6249C14.0398 6.25 14.3749 5.91484 14.3749 5.5V2.82344L17.5624 6.01094V17.6875ZM9.87494 8.35938C8.01166 8.35938 6.49994 9.87109 6.49994 11.7344C6.49994 13.5977 8.01166 15.1094 9.87494 15.1094C11.7382 15.1094 13.2499 13.5977 13.2499 11.7344C13.2499 9.87109 11.7382 8.35938 9.87494 8.35938ZM9.87494 13.6094C8.839 13.6094 7.99994 12.7703 7.99994 11.7344C7.99994 10.6984 8.839 9.85938 9.87494 9.85938C10.9109 9.85938 11.7499 10.6984 11.7499 11.7344C11.7499 12.7703 10.9109 13.6094 9.87494 13.6094Z"></path>
  </symbol>
</svg>